# xmcd
#
# Track frame offsets:
#	150
#	10019
#	18522
#	31632
#	45852
#	55775
#	66478
#	78211
#	88319
#	99727
#	110073
#	122526
#	129754
#	140991
#	152695
#	165979
#
# Disc length: 2356 seconds
#
# Revision: 1
# Processed by: cddbd v1.4PL0 Copyright (c) Steve Scherf et al.
# Submitted via: audiograbber 1.81.02
#
DISCID=c3093210
DTITLE=Barbara Mandrell - Do Right Woman, Do Right Man
DYEAR=1999
DGENRE=Country
TTITLE0=Do Right Woman, Do Right Man
TTITLE1=I Gave My Love to a Railroad Man
TTITLE2=Don't Touch Me
TTITLE3=Almost Persuaded
TTITLE4=After Closing Time
TTITLE5=Break My Mind
TTITLE6=Lovin You is Worth It
TTITLE7=Please Release Me
TTITLE8=Playing Around With Love
TTITLE9=This Time I Almost Made It
TTITLE10=Mama Don't Low 'No Music Playing in Here
TTITLE11=Kentucky Means Paradise
TTITLE12=Just a Pickin'
TTITLE13=Give a Little, Take a Little
TTITLE14=Lilies Grow High
TTITLE15=The Wayward Wind
EXTD=
EXTT0=
EXTT1=
EXTT2=
EXTT3=
EXTT4=
EXTT5=
EXTT6=
EXTT7=
EXTT8=
EXTT9=
EXTT10=
EXTT11=
EXTT12=
EXTT13=
EXTT14=
EXTT15=
PLAYORDER=
